<?xml version="1.0" encoding="utf-8"?>
<!-- Generator: Adobe Illustrator 19.2.1, SVG Export Plug-In . SVG Version: 6.00 Build 0)  -->
<svg version="1.1" id="Layer_1" xmlns="http://www.w3.org/2000/svg" xmlns:xlink="http://www.w3.org/1999/xlink" x="0px" y="0px"
	 viewBox="0 0 349 149.2" style="enable-background:new 0 0 349 149.2;" xml:space="preserve">
<style type="text/css">
	.st0{fill:#F7921E;}
	.st1{fill:#FFFFFF;}
</style>
<g>
	<path class="st0" d="M0,8c0-2.7,0-5.3,0-8c116.3,0,232.7,0,349,0c-1.4,11.4-1.7,23-4.6,34c-8.8,33.7-28.9,60-57,80.1
		c-40.6,29-86.1,39-135.3,33.8c-40.1-4.2-75.6-19.3-105.4-46.7C25.2,81.5,10.3,57.6,4,28.9C2.5,22,1.3,15,0,8z M217.4,16.7
		c0-1.8,0.2-2.8,0-3.7c-0.5-1.9-1.3-3.6-2-5.4c-1,1.6-2.8,3.1-3,4.7c-0.4,3.9-2.3,5-5.9,4.8c-1.7-0.1-3.4,0.7-5.2,1.1
		c0.1,0.4,0.1,0.9,0.2,1.3c3,0.3,6,0.6,9.3,0.9c0,9.7-0.2,19,0.1,28.3c0.1,3.4,1.1,6.9,2.6,10c1.3,2.9,3.9,4.8,7.6,2.9
		c-5.2-13.6-3.4-27.4-3.7-41c8.4-1.6,8.4-1.4,8.7,6.3c0.4,9.1,1.1,18.3,2,27.4c0.1,1.6,1.7,3,2.6,4.5c1.6-1,3.9-1.7,4.6-3.2
		c1.2-2.3,1.4-5.1,2-7.6c1.2-5.5,2.2-11,3.4-16.4c1.4,6.4,1.5,12.6,2.5,18.6c0.4,2.6,2.1,5.2,3.8,7.3c1.5,1.8,3.8,1.2,3.6-1.4
		c-0.7-9.1-1.5-18.2-2.8-27.3c-0.3-1.8-2.7-4.1-4.5-4.5c-1.3-0.3-4.2,1.6-4.9,3.1c-2.1,4.4-3.5,9.2-5.1,13.9
		c-0.9-8.7-0.9-17.4-1-26.2c0-1.8-0.3-3.7-1.1-5.3c-0.4-0.9-2-2-3-1.9c-0.8,0.1-1.9,1.7-2,2.8c-0.3,2.1-0.1,4.2-0.1,6.6
		C222.7,17.1,220.3,16.9,217.4,16.7z M160.4,89.8c-1.2-1.7-1.7-2.3-2.1-2.9c-3.6-5.8-6.8-11.9-11-17.3c-1.4-1.8-5.2-2-7.9-2.1
		c-0.8,0-2.2,3.2-2.2,5c-0.2,9.5-0.1,19-0.2,28.5c0,3,0.6,4.6,4.1,4.6c3.4,0,4.3-1.4,4.2-4.5c-0.2-6.1-0.1-12.2-0.1-19.3
		c1.3,1.8,2,2.6,2.6,3.5c3.8,5.9,7.2,12,11.5,17.5c1.3,1.7,4.7,2,7.3,2.3c0.5,0.1,1.9-3,2-4.7c0.2-9.5,0-19,0.1-28.5
		c0-3.1-0.4-5-4.3-5c-4.1,0-4.1,2.4-4,5.2C160.4,77.8,160.4,83.2,160.4,89.8z M205,79.4c-1-9.4-10.2-15.2-20.1-13.1
		c-13.6,2.9-19.6,19-12,32c4.7,8,13.4,10.7,21.9,7c1.1-0.5,2.7,0,4.1,0c2.4-0.1,6,2,6.4-2.1c0.5-5.9,0.1-11.9,0.1-18.4
		c-4.7,0-8.8-0.3-12.9,0.2c-1.3,0.1-3.3,2.2-3.3,3.4c0,1.2,1.8,2.8,3.2,3.6c1.2,0.6,2.9,0.3,4.4,0.4c-1.1,4.9-3.3,6.9-7.7,7.1
		c-4.6,0.2-8.6-2.4-9.5-7.1c-0.7-3.8-1-8.2,0.2-11.7c1-2.8,4.3-5.7,7.1-6.5c2.4-0.7,6.8,0.8,8.2,2.8C198,80.8,201.1,80,205,79.4z
		 M234.9,106.2c2.3-0.9,6.7-1.6,6.8-2.7c0.4-5.6,2.2-11.7-2.7-16.5c4.1-3.8,5.4-8.2,3.1-13.2c-2.2-4.8-6.4-6.5-11.4-6.6
		c-5-0.1-10,0.1-15,0c-3-0.1-4.1,1.2-4,4.2c0.2,6,0,12,0,18c0,5.2,0,10.5,0,15.8c3.2,0,5.6,0,8.6,0c0-4.8,0-9.2,0-14.4
		c4.2,0.4,9.6-0.6,11,1.3C233.7,95.2,233.6,100.2,234.9,106.2z M80.2,81c0-4.1,0.4-7.4-0.2-10.7c-0.2-1.2-2.4-2.8-3.8-2.9
		c-1.5-0.1-4.3,1.4-4.3,2.3c-0.3,11.7-0.2,23.5-0.2,35.1c8.1,1.7,8.5,1.4,8.6-5.7c0-2.3-0.3-4.7,0.1-7c0.2-1.2,1.6-2.9,2.7-3.1
		c9.7-1.7,10.8-0.7,10.8,9c0,1.2,0.1,2.3,0,3.5c-0.3,3.1,1.2,4.1,4.1,4c2.7-0.1,4.9-0.1,4.9-3.8c-0.1-10.3-0.1-20.6-0.1-30.9
		c0-3.3-1.8-3.8-4.5-3.7c-2.6,0-4.6,0.3-4.5,3.7c0.1,3.3,0,6.6,0,10.1C89.2,81,85,81,80.2,81z M104.2,82.5
		C104.2,82.5,104.2,82.5,104.2,82.5c0,3.8-0.1,7.7,0.1,11.5c0.4,8.3,6,13,15.2,13.1c9.4,0.1,15.6-4.8,15.9-13c0.3-7.7,0-15.3,0.1-23
		c0.1-3.2-1.5-3.9-4.3-3.9c-2.9,0-4.7,0.5-4.6,4.1c0.2,6.7,0.1,13.3,0,20c-0.1,6-2.1,8.3-6.9,8.3c-4.4,0-6.5-2.6-6.5-8.2
		c-0.1-6.7-0.2-13.3,0-20c0.1-3.4-1.5-4.2-4.5-4.2c-3.1,0-4.6,1-4.5,4.3C104.3,75.1,104.2,78.8,104.2,82.5z M174.1,30.7
		c-1.8-1-2.9-1.7-4.1-2.3c-6.9-3.7-12.3-2.9-15.2,2.4c-3.3,6-1.4,13.2,5.2,16.5c4.5,2.3,9.5,3.4,15.1,5.4c-0.1-0.3,0,0.5,0.4,1.2
		c1.1,1.8,2.2,3.5,3.4,5.2c1-2,2.7-4,2.8-6c0.3-13.6,0.3-27.2,0.1-40.8c0-1.5-1.8-3-2.8-4.5c-0.9,1.4-2.5,2.6-2.7,4.1
		C175.3,17.9,174.8,24,174.1,30.7z M98.2,25.9c-0.1-0.7-0.1-1.4-0.2-2.1c-5.2-0.3-10.4-0.8-15.6-0.8c-3.4,0-4.6-1.1-3.5-4.3
		c7.2-2,15.2,2.2,21.6-3.8c-2-1.1-4-1.8-6-1.8c-5.3-0.2-10.6-0.2-16-0.3c-6-0.1-7.4,1-7.6,7.1c-0.4,10.3-0.7,20.6-0.7,30.9
		c0,3-0.9,7.8,3.7,8c5.2,0.2,4.1-4.7,4.2-8c0.2-7.1,0.1-14.2,0.1-21.2C85.3,27.7,92.6,30.7,98.2,25.9z M275.2,67.8
		c-8.9-1.4-9.1-1.3-12.5,5.5c-1.3,2.6-2.6,5.1-3.9,7.8c-0.6-0.5-0.8-0.6-0.9-0.7c-1.5-2.8-3-5.5-4.5-8.3c-2.9-5.5-5.2-6.3-11.8-3.7
		c2.3,4.1,4.3,8.2,6.8,12.2c3.9,6.3,6.9,12.8,5.8,20.6c-0.5,3,0.8,4.5,4.1,4.5c3.4,0,5.1-1.1,4.6-4.6c-1.1-7.5,1.5-13.9,5.3-20.2
		C270.8,76.9,272.8,72.5,275.2,67.8z M109.9,49c4.4-3.3,8.1-5.3,10.9-8.2c5.1-5.1,4.8-11.1-0.1-15.3c-4.6-3.9-10.3-3.1-14.9,2.2
		c-5.3,6.1-6.7,19-2.9,26c2.6,4.8,7.9,7.1,12.2,4.8c5.7-3.1,7.9-8.8,9.2-14.9c-2.4,1.6-3.6,4.1-5.3,6.1c-1.3,1.5-3.4,3.5-4.8,3.2
		C112.5,52.6,111.2,50.2,109.9,49z M136.4,49.6c4.9-4.6,9.3-8,12.8-12.2c3.1-3.7,1.8-7.8-1.5-11.2c-4.9-4.9-11.8-4.3-16.2,2.1
		c-5.2,7.6-6.2,16-2.6,24.7c2,4.7,6.4,7,10.8,6c5.1-1.1,11.2-10,10.2-15.9c-1.8,2-2.9,4.4-4.6,6.4c-1.3,1.5-3.3,3.7-4.7,3.5
		C138.9,52.8,137.4,50.4,136.4,49.6z M274.9,43c-1.4,2.3-2.6,4.7-4.3,6.7c-1.3,1.5-3.5,3.6-4.8,3.2c-1.9-0.5-3.2-2.9-4.3-4
		c4.3-3.2,8.1-5.3,11-8.3c5-5.1,4.8-10.7,0.1-14.8c-4.8-4.2-10.7-3.4-15.3,2c-5.2,6.1-6.5,19-2.7,26c2.5,4.6,7.4,6.7,11.7,5
		C270.8,57,276,49,274.9,43z"/>
	<path class="st1" d="M217.4,16.7c2.9,0.2,5.3,0.3,8.6,0.5c0-2.4-0.2-4.5,0.1-6.6c0.2-1.1,1.2-2.7,2-2.8c0.9-0.1,2.6,0.9,3,1.9
		c0.7,1.6,1,3.5,1.1,5.3c0.1,8.8,0,17.6,1,26.2c1.6-4.6,3-9.4,5.1-13.9c0.7-1.6,3.6-3.5,4.9-3.1c1.8,0.5,4.3,2.8,4.5,4.5
		c1.3,9,2.1,18.2,2.8,27.3c0.2,2.6-2.1,3.3-3.6,1.4c-1.7-2.1-3.4-4.7-3.8-7.3c-0.9-6-1.1-12.2-2.5-18.6c-1.1,5.5-2.2,11-3.4,16.4
		c-0.5,2.6-0.8,5.4-2,7.6c-0.8,1.5-3,2.1-4.6,3.2c-0.9-1.5-2.4-3-2.6-4.5c-0.9-9.1-1.6-18.2-2-27.4c-0.3-7.7-0.3-7.9-8.7-6.3
		c0.3,13.6-1.5,27.4,3.7,41c-3.7,1.9-6.3,0-7.6-2.9c-1.4-3.1-2.4-6.6-2.6-10c-0.3-9.3-0.1-18.6-0.1-28.3c-3.3-0.3-6.3-0.6-9.3-0.9
		c-0.1-0.4-0.1-0.9-0.2-1.3c1.7-0.4,3.5-1.2,5.2-1.1c3.6,0.2,5.5-0.9,5.9-4.8c0.2-1.7,2-3.2,3-4.7c0.7,1.8,1.5,3.6,2,5.4
		C217.6,13.9,217.4,15,217.4,16.7z"/>
	<path class="st1" d="M160.4,89.8c0-6.7,0-12.1,0-17.5c0-2.8,0-5.2,4-5.2c3.9,0,4.3,2,4.3,5c-0.1,9.5,0.1,19-0.1,28.5
		c0,1.6-1.4,4.7-2,4.7c-2.5-0.3-6-0.6-7.3-2.3c-4.2-5.5-7.7-11.7-11.5-17.5c-0.6-0.9-1.3-1.8-2.6-3.5c0,7.2-0.1,13.2,0.1,19.3
		c0.1,3.1-0.8,4.5-4.2,4.5c-3.5,0-4.1-1.7-4.1-4.6c0.1-9.5-0.1-19,0.2-28.5c0-1.8,1.5-5,2.2-5c2.7,0,6.5,0.3,7.9,2.1
		c4.2,5.4,7.4,11.5,11,17.3C158.7,87.6,159.1,88.2,160.4,89.8z"/>
	<path class="st1" d="M205,79.4c-3.9,0.6-7,1.4-9.8-2.7c-1.4-2-5.8-3.4-8.2-2.8c-2.8,0.8-6.1,3.7-7.1,6.5c-1.2,3.5-0.9,7.9-0.2,11.7
		c0.8,4.8,4.9,7.3,9.5,7.1c4.4-0.2,6.6-2.2,7.7-7.1c-1.5-0.1-3.2,0.2-4.4-0.4c-1.4-0.8-3.2-2.4-3.2-3.6c0-1.2,2-3.2,3.3-3.4
		c4.1-0.4,8.2-0.2,12.9-0.2c0,6.5,0.4,12.5-0.1,18.4c-0.4,4.1-4,2.1-6.4,2.1c-1.4,0-2.9-0.5-4.1,0c-8.5,3.7-17.2,1-21.9-7
		c-7.6-13-1.6-29.1,12-32C194.8,64.2,204,70,205,79.4z"/>
	<path class="st1" d="M234.9,106.2c-1.3-6-1.1-11-3.5-14.1c-1.4-1.9-6.8-0.9-11-1.3c0,5.1,0,9.5,0,14.4c-3,0-5.4,0-8.6,0
		c0-5.4,0-10.6,0-15.8c0-6,0.1-12,0-18c-0.1-3,1-4.2,4-4.2c5,0.1,10,0,15,0c5,0.1,9.2,1.8,11.4,6.6c2.3,5,1,9.4-3.1,13.2
		c4.9,4.8,3.1,10.9,2.7,16.5C241.6,104.6,237.2,105.3,234.9,106.2z M220.4,83.5c3.9,0,7.5,0.5,10.8-0.2c1.5-0.3,3.3-2.8,3.4-4.4
		c0.1-1.3-2-3.7-3.3-3.9c-3.5-0.6-7.1-0.2-10.9-0.2C220.4,77.9,220.4,80.4,220.4,83.5z"/>
	<path class="st1" d="M80.2,81c4.7,0,8.9,0,13.7,0c0-3.6,0.1-6.9,0-10.1c-0.2-3.4,1.9-3.7,4.5-3.7c2.6,0,4.5,0.4,4.5,3.7
		c-0.1,10.3-0.1,20.6,0.1,30.9c0,3.7-2.2,3.8-4.9,3.8c-2.9,0.1-4.4-0.9-4.1-4c0.1-1.2,0-2.3,0-3.5c0-9.7-1.1-10.7-10.8-9
		c-1.1,0.2-2.5,1.9-2.7,3.1c-0.4,2.2-0.1,4.6-0.1,7c0,7-0.5,7.4-8.6,5.7c0-11.6-0.1-23.4,0.2-35.1c0-0.9,2.9-2.4,4.3-2.3
		c1.4,0.1,3.6,1.7,3.8,2.9C80.6,73.6,80.2,76.9,80.2,81z"/>
	<path class="st1" d="M104.2,82.5c0-3.7,0.1-7.3,0-11c-0.2-3.3,1.3-4.4,4.5-4.3c3,0,4.6,0.8,4.5,4.2c-0.2,6.7-0.1,13.3,0,20
		c0.1,5.6,2.2,8.2,6.5,8.2c4.8,0,6.8-2.3,6.9-8.3c0.1-6.7,0.2-13.3,0-20c-0.1-3.6,1.7-4.1,4.6-4.1c2.8,0,4.3,0.7,4.3,3.9
		c-0.2,7.7,0.2,15.3-0.1,23c-0.3,8.2-6.5,13-15.9,13c-9.1-0.1-14.7-4.8-15.2-13.1C104.1,90.1,104.2,86.3,104.2,82.5
		C104.2,82.5,104.2,82.5,104.2,82.5z"/>
	<path class="st1" d="M174.1,30.7c0.7-6.7,1.3-12.8,2.2-18.9c0.2-1.5,1.8-2.7,2.7-4.1c1,1.5,2.8,3,2.8,4.5
		c0.2,13.6,0.2,27.2-0.1,40.8c0,2-1.8,4-2.8,6c-1.1-1.7-2.3-3.4-3.4-5.2c-0.4-0.7-0.5-1.5-0.4-1.2c-5.6-1.9-10.6-3.1-15.1-5.4
		c-6.6-3.3-8.5-10.5-5.2-16.5c2.9-5.3,8.3-6.1,15.2-2.4C171.2,29,172.3,29.7,174.1,30.7z M174.5,47.6c0.2-8.4-3.1-12.8-9.5-13.8
		c-1.7-0.3-4.7,0.6-5.3,1.8c-0.7,1.4,0.1,4.8,1.4,5.5C165,43.6,169.4,45.3,174.5,47.6z"/>
	<path class="st1" d="M98.2,25.9c-5.6,4.8-12.9,1.8-19.9,3.8c0,7,0.1,14.1-0.1,21.2c-0.1,3.2,0.9,8.2-4.2,8c-4.6-0.2-3.7-5-3.7-8
		c0-10.3,0.2-20.6,0.7-30.9c0.3-6.1,1.6-7.2,7.6-7.1c5.3,0,10.6,0,16,0.3c2,0.1,4,0.7,6,1.8c-6.4,5.9-14.4,1.8-21.6,3.8
		c-1.1,3.2,0.1,4.2,3.5,4.3c5.2,0,10.4,0.5,15.6,0.8C98,24.5,98.1,25.2,98.2,25.9z"/>
	<path class="st1" d="M275.2,67.8c-2.5,4.7-4.5,9-6.9,13.1c-3.8,6.2-6.4,12.7-5.3,20.2c0.5,3.5-1.2,4.6-4.6,4.6
		c-3.4,0-4.6-1.5-4.1-4.5c1.1-7.7-1.8-14.2-5.8-20.6c-2.4-3.9-4.5-8.1-6.8-12.2c6.6-2.6,9-1.8,11.8,3.7c1.5,2.8,3,5.6,4.5,8.3
		c0.1,0.1,0.2,0.2,0.9,0.7c1.3-2.7,2.6-5.2,3.9-7.8C266.1,66.5,266.3,66.4,275.2,67.8z"/>
	<path class="st1" d="M109.9,49c1.3,1.3,2.6,3.6,4.4,3.9c1.4,0.2,3.6-1.7,4.8-3.2c1.7-2,2.9-4.5,5.3-6.1c-1.3,6.1-3.4,11.8-9.2,14.9
		c-4.3,2.3-9.6,0-12.2-4.8c-3.8-7-2.4-19.9,2.9-26c4.5-5.3,10.2-6.1,14.9-2.2c4.9,4.2,5.1,10.2,0.1,15.3
		C118,43.6,114.3,45.7,109.9,49z M108.3,43.3c6.3-0.2,9.9-2.9,11.4-7.6c0.5-1.7-0.8-4-1.3-6c-2,0.6-5.2,0.6-5.9,1.9
		C110.6,35.3,109.7,39.4,108.3,43.3z"/>
	<path class="st1" d="M136.4,49.6c0.9,0.8,2.4,3.2,4.2,3.4c1.4,0.2,3.5-2,4.7-3.5c1.6-2,2.8-4.4,4.6-6.4C151,49,144.8,58,139.8,59
		c-4.5,0.9-8.9-1.3-10.8-6c-3.6-8.6-2.5-17.1,2.6-24.7c4.3-6.4,11.2-7,16.2-2.1c3.3,3.3,4.6,7.5,1.5,11.2
		C145.8,41.6,141.4,45,136.4,49.6z M134.6,43.2c0.6,0.3,1.2,0.6,1.9,0.9c4.4-1.2,8-3.7,9.4-8.3c0.5-1.7-0.7-4-1.1-6
		c-2,0.6-5.2,0.5-5.9,1.8C136.9,35.2,135.9,39.3,134.6,43.2z"/>
	<path class="st1" d="M274.9,43c1.1,6-4.1,14-8.5,15.7c-4.4,1.7-9.2-0.4-11.7-5c-3.8-7-2.5-19.9,2.7-26c4.6-5.4,10.5-6.2,15.3-2
		c4.7,4.2,5,9.7-0.1,14.8c-2.9,3-6.7,5.1-11,8.3c1.1,1.1,2.5,3.5,4.3,4c1.3,0.3,3.5-1.7,4.8-3.2C272.3,47.7,273.5,45.2,274.9,43z
		 M259.9,44.5c6.2-1.4,9.6-4.1,11.3-8.2c0.7-1.7-0.7-4.3-1.2-6.5c-2.1,0.8-5.4,0.9-6.2,2.4C262,35.6,261.4,39.7,259.9,44.5z"/>
	<path class="st0" d="M220.4,83.5c0-3.2,0-5.6,0-8.7c3.8,0,7.4-0.4,10.9,0.2c1.4,0.2,3.4,2.7,3.3,3.9c-0.2,1.6-2,4.1-3.4,4.4
		C227.9,84,224.3,83.5,220.4,83.5z"/>
	<path class="st0" d="M174.5,47.6c-5.1-2.3-9.5-4-13.4-6.4c-1.2-0.8-2-4.1-1.4-5.5c0.6-1.2,3.6-2.1,5.3-1.8
		C171.4,34.8,174.7,39.2,174.5,47.6z"/>
	<path class="st0" d="M108.3,43.3c1.3-3.9,2.3-8,4.3-11.6c0.7-1.3,3.9-1.3,5.9-1.9c0.5,2,1.8,4.3,1.3,6
		C118.2,40.4,114.6,43.1,108.3,43.3z"/>
	<path class="st0" d="M134.6,43.2c1.4-3.9,2.3-8,4.3-11.5c0.7-1.3,3.9-1.3,5.9-1.8c0.4,2,1.7,4.3,1.1,6c-1.4,4.5-5,7-9.4,8.3
		C135.8,43.8,135.2,43.5,134.6,43.2z"/>
	<path class="st0" d="M259.9,44.5c1.4-4.9,2-8.9,3.8-12.3c0.8-1.5,4.1-1.6,6.2-2.4c0.5,2.2,1.9,4.8,1.2,6.5
		C269.5,40.4,266.2,43.1,259.9,44.5z"/>
</g>
</svg>
